<?xml version="1.0" standalone="no"?>
<!DOCTYPE svg PUBLIC "-//W3C//DTD SVG 20010904//EN"
 "http://www.w3.org/TR/2001/REC-SVG-20010904/DTD/svg10.dtd">
<svg version="1.0" xmlns="http://www.w3.org/2000/svg"
 width="551.000000pt" height="551.000000pt" viewBox="0 0 551.000000 551.000000"
 preserveAspectRatio="xMidYMid meet">
<metadata>
Created by potrace 1.11, written by Peter Selinger 2001-2013
</metadata>
<g transform="translate(0.000000,551.000000) scale(0.100000,-0.100000)"
fill="#000000" stroke="none">
<path d="M153 5374 c-7 -3 -13 -13 -13 -21 0 -12 351 -837 450 -1058 10 -22
48 -110 85 -195 64 -147 86 -199 122 -280 8 -19 53 -123 100 -230 46 -107 90
-208 98 -225 7 -16 52 -120 100 -230 137 -314 126 -293 139 -271 60 102 209
312 315 445 142 176 151 190 151 219 0 11 -25 80 -56 153 -104 250 -436 1053
-555 1344 -67 162 -129 300 -142 313 -13 12 -36 24 -53 26 -52 7 -728 16 -741
10z"/>
<path d="M3009 5348 c0 -7 -2 -22 -4 -33 -2 -11 -9 -49 -15 -85 -50 -279 -191
-569 -434 -893 -81 -108 -304 -387 -326 -407 -3 -3 -34 -39 -70 -80 -36 -41
-67 -77 -70 -80 -3 -3 -41 -47 -85 -99 -44 -52 -89 -103 -100 -115 -11 -12
-42 -48 -70 -81 -27 -33 -52 -62 -55 -65 -4 -3 -42 -50 -86 -105 -43 -55 -82
-102 -85 -105 -9 -8 -140 -187 -201 -275 -294 -428 -387 -784 -298 -1136 35
-139 120 -294 228 -419 l31 -35 0 100 c0 55 3 110 5 121 2 12 7 39 10 59 23
140 146 399 285 596 15 20 33 47 41 59 51 75 258 331 380 470 85 97 126 144
135 154 6 6 55 61 110 121 55 61 102 112 105 115 4 4 101 114 185 209 17 18
35 39 40 45 6 6 62 72 125 146 194 230 327 418 425 601 121 226 167 375 167
549 1 228 -76 406 -253 583 -94 94 -118 111 -120 85z"/>
<path d="M3785 3279 c-80 -7 -116 -17 -145 -41 -20 -16 -51 -91 -79 -184 -21
-72 -57 -124 -86 -124 -23 0 -57 19 -78 44 -78 92 -134 129 -206 139 -71 10
-236 -53 -299 -114 -41 -40 -42 -78 -2 -169 46 -105 37 -161 -35 -216 -47 -36
-85 -33 -149 9 -72 47 -139 72 -163 59 -14 -8 -152 -265 -194 -362 -6 -14 27
-16 305 -14 171 0 320 3 331 6 11 3 40 11 65 18 60 16 140 54 209 100 344 228
671 263 1001 109 101 -48 157 -82 268 -166 46 -35 89 -64 95 -65 36 -4 757 -4
755 1 -81 165 -159 292 -195 321 -36 28 -72 25 -171 -16 -100 -41 -156 -43
-197 -4 -52 49 -55 121 -9 211 41 81 40 104 -3 148 -49 48 -140 109 -230 155
-104 52 -126 49 -175 -22 -72 -104 -142 -154 -202 -145 -59 9 -71 32 -81 155
-11 150 -85 187 -330 167z"/>
<path d="M2741 3225 c-45 -32 -204 -196 -361 -371 -234 -260 -490 -631 -653
-946 -54 -103 -133 -286 -141 -323 -2 -5 -12 -41 -24 -80 -12 -38 -24 -88 -27
-110 -4 -22 -11 -59 -16 -83 -10 -47 -13 -243 -5 -282 4 -14 9 -38 11 -53 40
-218 235 -450 442 -526 106 -39 243 -59 243 -37 0 6 -21 45 -47 86 -139 223
-214 438 -238 679 -37 364 83 806 343 1263 93 163 309 475 471 678 66 82 79
105 70 116 -16 20 -30 18 -68 -11z"/>
<path d="M2810 2054 c-30 -8 -66 -17 -80 -20 -13 -3 -26 -7 -28 -9 -2 -2 -5
-138 -6 -302 -2 -193 -6 -307 -14 -325 -19 -47 -73 -78 -162 -95 -29 -5 -40
-19 -40 -52 0 -23 2 -23 63 -18 199 18 330 105 339 226 2 30 3 30 26 15 35
-23 414 -24 458 -1 25 13 33 13 54 1 38 -20 384 -20 434 1 33 14 39 14 59 0
31 -22 384 -22 427 0 27 14 33 14 62 -1 26 -14 68 -16 276 -15 227 0 248 2
288 21 26 13 53 36 66 58 22 36 23 45 24 285 l2 248 -29 -6 c-16 -4 -57 -15
-92 -24 l-62 -18 -2 -209 c-2 -133 -7 -217 -14 -231 -18 -33 -56 -42 -195 -42
-135 0 -178 11 -192 49 -4 11 -7 123 -7 250 0 126 -2 230 -5 230 -3 0 -45 -11
-95 -23 l-90 -23 -1 -205 c-1 -112 -2 -212 -3 -222 -3 -50 -169 -78 -246 -41
-46 21 -49 40 -48 302 1 214 1 214 -21 208 -11 -3 -54 -13 -93 -23 l-73 -17 0
-212 c0 -211 0 -213 -24 -241 -24 -27 -27 -28 -126 -28 -97 0 -103 1 -124 25
-21 25 -21 33 -21 259 0 128 -2 234 -5 236 -3 2 -46 -6 -95 -18 l-90 -22 2
-213 c2 -210 1 -213 -22 -240 -23 -27 -24 -27 -157 -27 -141 0 -179 10 -220
58 -22 25 -20 1 -22 251 0 130 -5 210 -11 212 -5 1 -35 -5 -65 -12z"/>
<path d="M4692 1338 c-25 -12 -37 -46 -28 -76 9 -28 58 -45 112 -39 80 9 110
65 58 106 -30 23 -102 28 -142 9z"/>
<path d="M4928 1335 c-49 -27 -45 -85 8 -105 56 -22 143 -2 157 34 25 64 -88
112 -165 71z"/>
<path d="M2364 1045 c3 -16 27 -75 55 -130 27 -55 56 -116 64 -136 35 -87 91
-100 195 -43 36 19 82 37 103 40 45 7 102 -16 123 -48 28 -43 25 -73 -15 -189
-21 -62 -39 -118 -39 -125 0 -31 142 -123 215 -138 102 -22 195 9 289 95 126
114 178 97 210 -71 9 -47 37 -175 41 -190 4 -13 36 -15 219 -15 162 0 217 3
229 14 32 26 63 133 66 229 1 13 14 37 30 53 32 32 83 39 124 18 25 -14 80
-71 135 -142 20 -26 47 -50 59 -53 37 -10 259 116 339 191 34 33 40 61 18 96
-14 24 -64 175 -64 196 0 27 62 80 110 94 31 9 50 6 145 -26 120 -40 164 -46
178 -24 124 205 173 313 148 328 -5 3 -166 5 -358 5 -394 -2 -372 2 -473 -84
-135 -115 -287 -191 -450 -224 -75 -16 -77 -16 -193 -17 -122 0 -278 31 -392
79 -76 33 -208 105 -264 144 -36 26 -86 60 -109 74 l-44 27 -349 1 -349 1 4
-30z"/>
</g>
</svg>
